<?xml version="1.0" encoding="utf-8"?>
<!-- Generator: Adobe Illustrator 25.4.1, SVG Export Plug-In . SVG Version: 6.00 Build 0)  -->
<svg version="1.1" id="Layer_1" xmlns="http://www.w3.org/2000/svg" xmlns:xlink="http://www.w3.org/1999/xlink" x="0px" y="0px"
	 viewBox="0 0 299.7 85.8" style="enable-background:new 0 0 299.7 85.8;" xml:space="preserve">
<style type="text/css">
	.st0{fill:url(#SVGID_1_);}
	.st1{fill:#FFFFFF;}
	.st2{font-family:'Lato-Semibold';}
	.st3{font-size:34.7059px;}
	.st4{fill:#B700DF;}
</style>
<linearGradient id="SVGID_1_" gradientUnits="userSpaceOnUse" x1="8.1306" y1="-619.1498" x2="60.2599" y2="-582.6485" gradientTransform="matrix(1 0 0 -1 0 -558)">
	<stop  offset="6.117877e-04" style="stop-color:#00A0D7"/>
	<stop  offset="1" style="stop-color:#B705D9"/>
</linearGradient>
<path class="st0" d="M57.9,42.7L57.9,42.7l5.8-5.8c1-1,1.5-2.3,1.5-3.6s-0.5-2.6-1.5-3.6L37.8,3.8c-1-1-2.3-1.5-3.6-1.5
	c-1.4,0-2.6,0.5-3.6,1.5L4.7,29.7c-1,1-1.5,2.3-1.5,3.6c0,1.4,0.5,2.6,1.5,3.6l6,6l0,0l2.7,2.7l0,0l17.2,17.2c1,1,2.3,1.5,3.6,1.5
	c0.7,0,1.4-0.2,2.1-0.5l22.2-8L35,79.3c-0.2,0.2-0.5,0.4-0.8,0.4s-0.6-0.1-0.8-0.4l-26-25.9c-0.5-0.5-0.5-1.3,0-1.7l4.7-4.7
	l-2.7-2.7l-4.7,4.6c-1,1-1.5,2.3-1.5,3.6c0,1.4,0.5,2.6,1.5,3.6L30.6,82c1,1,2.3,1.5,3.6,1.5s2.6-0.5,3.6-1.5l25.9-25.9
	c1-1,1.5-2.3,1.5-3.6c0-1.4-0.5-2.6-1.5-3.6L59,44.2l-2.7,2.7l4.2,4.2l-17.7,6.6l12.2-12 M52.1,43L35,60.1c-0.2,0.2-0.5,0.4-0.8,0.4
	s-0.6-0.1-0.8-0.4L16.1,42.9l0,0l-2.7-2.7l0,0l-5.6-5.6l17.4-6.3L14.7,38.8l2.7,2.7l15.8-15.8c0.2-0.2,0.5-0.4,0.8-0.4
	s0.6,0.1,0.8,0.4l15.9,15.9l2.7-2.7L37.5,23c-1-1-2.3-1.5-3.6-1.5c-0.4,0-0.7,0-1.1,0.1l0,0L32,21.9L9.3,30.3L33,6.6
	c0.2-0.2,0.5-0.4,0.8-0.4s0.6,0.1,0.8,0.4l25.9,25.9c0.5,0.5,0.5,1.2,0,1.7l-5.6,5.6"/>
<text transform="matrix(1 0 0 1 94.5488 53.7724)" class="st1 st2 st3">Valiant</text>
<text transform="matrix(1 0 0 1 202.4488 53.7724)" class="st4 st2 st3">.</text>
<text transform="matrix(1 0 0 1 210.6488 53.7724)" class="st1 st2 st3">dev</text>
</svg>
