<?xml version="1.0" encoding="utf-8"?>
<!-- Generator: Adobe Illustrator 25.0.1, SVG Export Plug-In . SVG Version: 6.00 Build 0)  -->
<svg version="1.1" id="Layer_1" xmlns="http://www.w3.org/2000/svg" xmlns:xlink="http://www.w3.org/1999/xlink" x="0px" y="0px"
	 viewBox="0 0 315 416" style="enable-background:new 0 0 315 416;" xml:space="preserve">
<path d="M273.5,203L273.5,203l28.5-28.4c4.7-4.7,7.3-11,7.3-17.7c0-6.7-2.6-13-7.3-17.7L174.8,11.9c-4.7-4.7-11-7.3-17.7-7.3
	c-6.7,0-13,2.6-17.7,7.3L12.1,139.2c-4.7,4.7-7.3,11-7.3,17.7c0,6.7,2.6,13,7.3,17.7L41.5,204l0,0l13.4,13.4l0,0l84.5,84.5
	c4.7,4.7,11,7.3,17.6,7.3c3.6,0,7.1-0.8,10.4-2.2l108.8-39.3l-115,114.9c-1.1,1.1-2.6,1.8-4.2,1.8s-3.1-0.6-4.2-1.8L25.4,255.4
	c-2.3-2.4-2.3-6.2,0-8.5L48.3,224l-13.4-13.4L12,233.4c-4.7,4.7-7.3,11-7.3,17.7s2.6,13,7.3,17.7l127.3,127.3
	c4.7,4.7,11,7.3,17.7,7.3s13-2.6,17.7-7.3L302,268.8c4.7-4.7,7.3-11,7.3-17.7s-2.6-13-7.3-17.7l-22.9-22.8l-13.5,13.5l20.8,20.8
	L199.5,277l59.5-59.5 M245.2,204.5l-83.9,83.9c-1.1,1.1-2.6,1.8-4.2,1.8c-1.6,0-3.1-0.6-4.2-1.8l-84.5-84.5l0,0l-13.5-13.5l0,0
	l-27.4-27.3l85.7-31l-51.7,51.7L75,197.3l77.7-77.7c1.1-1.1,2.6-1.8,4.2-1.8s3.1,0.6,4.2,1.8l78,78l13.4-13.4l-78-78
	c-4.7-4.7-11-7.3-17.7-7.3c-1.7,0-3.4,0.1-5.2,0.5l-0.1-0.2l-3.8,1.4L36.4,141.7L152.8,25.4c1.1-1.1,2.6-1.8,4.2-1.8
	c1.6,0,3.1,0.6,4.2,1.8l127.3,127.3c2.3,2.3,2.3,6.1,0,8.5l-27.6,27.6"/>
</svg>
