<svg data-v-b42acd00="" version="1.1" id="Layer_1" xmlns="http://www.w3.org/2000/svg" xmlns:xlink="http://www.w3.org/1999/xlink" x="0px" y="0px" viewBox="0 0 315 416" xml:space="preserve"><path data-v-b42acd00="" d="M272.5,204.1l29.5-29.5c4.7-4.7,7.3-11,7.3-17.7s-2.6-13-7.3-17.7L174.8,11.9c-4.7-4.7-11-7.3-17.7-7.3
				c-6.7,0-13,2.6-17.7,7.3L12.1,139.2c-4.7,4.7-7.3,11-7.3,17.7s2.6,13,7.3,17.7l29.4,29.4L12,233.4c-4.7,4.7-7.3,11-7.3,17.7
				s2.6,13,7.3,17.7l127.3,127.3c4.7,4.7,11,7.3,17.7,7.3c6.7,0,13-2.6,17.7-7.3l127.3-127.3c4.7-4.7,7.3-11,7.3-17.7s-2.6-13-7.3-17.7
				L272.5,204.1z M151.6,99.4l-0.1-0.2l-3.8,1.4L36.4,141.7L152.8,25.4c1.1-1.1,2.6-1.8,4.2-1.8c1.6,0,3.1,0.6,4.2,1.8l127.3,127.3
				c2.3,2.3,2.3,6.1,0,8.5l-29.5,29.5l-84.5-84.5c-4.7-4.7-11-7.3-17.7-7.3C155.1,98.9,153.4,99,151.6,99.4z M157.1,290.2
				c-1.6,0-3.1-0.6-4.2-1.8l-84.5-84.5l84.3-84.3c1.1-1.1,2.6-1.8,4.2-1.8c1.6,0,3.1,0.6,4.2,1.8l84.5,84.5l-84.3,84.3
				C160.2,289.5,158.7,290.2,157.1,290.2z M25.4,246.9l29.5-29.5l84.5,84.5c4.7,4.7,11,7.3,17.6,7.3c3.6,0,7.1-0.8,10.4-2.2l108.8-39.3
				L161.2,382.6c-1.1,1.1-2.6,1.8-4.2,1.8c-1.6,0-3.1-0.6-4.2-1.8L25.4,255.4C23.1,253,23.1,249.2,25.4,246.9z M27.5,163.1l85.7-31
				l-58.3,58.3L27.5,163.1z M286.4,244.9L199.5,277l59.5-59.5L286.4,244.9z" class="logo-symbol"></path></svg>